<svg width="24" height="21" viewBox="0 0 24 21" fill="none" xmlns="http://www.w3.org/2000/svg">
<path id="Vector" d="M9.64487 1.26069L0.0348663 10.9207L9.64487 20.5807C9.73166 20.6947 9.84192 20.7887 9.9682 20.8563C10.0945 20.924 10.2338 20.9637 10.3768 20.9728C10.5197 20.9819 10.663 20.9602 10.7969 20.9092C10.9307 20.8581 11.052 20.7789 11.1526 20.6769C11.2532 20.5749 11.3306 20.4524 11.3798 20.3179C11.4289 20.1833 11.4486 20.0398 11.4374 19.8969C11.4262 19.7541 11.3845 19.6154 11.3151 19.4901C11.2456 19.3648 11.1501 19.2558 11.0349 19.1707L3.84487 11.9207L22.9749 11.9207C23.2401 11.9207 23.4944 11.8153 23.682 11.6278C23.8695 11.4403 23.9749 11.1859 23.9749 10.9207C23.9749 10.6555 23.8695 10.4011 23.682 10.2136C23.4944 10.0261 23.2401 9.92069 22.9749 9.92069L3.84487 9.92069L11.0349 2.67069C11.2218 2.48239 11.3264 2.22752 11.3254 1.96216C11.3245 1.69679 11.2182 1.44267 11.0299 1.25569C10.8416 1.06872 10.5867 0.964199 10.3213 0.965137C10.056 0.966076 9.80184 1.07239 9.61487 1.26069H9.64487Z" fill="#FFF8F8"/>
</svg>
