<svg xmlns="http://www.w3.org/2000/svg" viewBox="0 0 424.75 272.85"><defs><style>.cls-1{fill:#009640;}.cls-1,.cls-2{stroke:#fff;stroke-miterlimit:10;}.cls-2,.cls-33{fill:#fff;}.cls-3{fill:#a9d6c5;}.cls-4{fill:#50b47d;}.cls-5{fill:#06955f;}.cls-6{fill:#fefffe;}.cls-7{fill:#51b47e;}.cls-8{fill:#269c6b;}.cls-9{fill:#46b181;}.cls-10{fill:#fafcfb;}.cls-11{fill:#389763;}.cls-12{fill:#5bb990;}.cls-13{fill:#249868;}.cls-14{fill:#4ab48a;}.cls-15{fill:#33ae70;}.cls-16{fill:#c9e0d8;}.cls-17{fill:#cbc49d;}.cls-18{fill:#dec2ae;}.cls-19{fill:#c5e2d6;}.cls-20{fill:#d5e7cf;}.cls-21{fill:#273539;}.cls-22{fill:#04a164;}.cls-23{fill:#273639;}.cls-24{fill:#e2f1ed;}.cls-25{fill:#4a5f66;}.cls-26{fill:#56686f;}.cls-27{fill:#c0e1d5;}.cls-28{fill:#185847;}.cls-29{fill:#7abea5;}.cls-30{fill:#b3dbcb;}.cls-31{fill:#009e61;}.cls-32{fill:#273339;}.cls-34{fill:#4db37c;}.cls-35{fill:#6ebf9c;}.cls-36{fill:#62ba8e;}.cls-37{fill:#5eb98b;}.cls-38{fill:#cbe6e0;}.cls-39{fill:#e0f0ec;}.cls-40{fill:#a3d4c0;}.cls-41{fill:#9cd1c1;}.cls-42{fill:#27353b;}.cls-43{fill:#019d60;}.cls-44{fill:#26373b;}.cls-45{fill:#26343a;}.cls-46{fill:#009d60;}.cls-47{fill:#2dac7c;}.cls-48{fill:#63b997;}.cls-49{fill:#d5ebe6;}.cls-50{fill:#f8bd9d;}.cls-51{fill:#28493e;}.cls-52{fill:#186646;}.cls-53{fill:#02985c;}.cls-54{fill:#d7c49f;}.cls-55{fill:#325f49;}.cls-56{fill:#d9d8d6;}.cls-57{fill:#6e9473;}.cls-58{fill:#9cd1bb;}.cls-59{fill:#475a66;}.cls-60{fill:#7e8b93;}.cls-61{fill:#26363b;}.cls-62{fill:#485b64;}.cls-63{fill:#356b63;}.cls-64{fill:#78888f;}.cls-65{fill:#add5c8;}.cls-66{fill:#2e3f45;}.cls-67{fill:#54696d;}.cls-68{fill:#f7bd9d;}.cls-69{fill:#2a383a;}.cls-70{fill:#f7fbfa;}.cls-71{fill:#dcc09f;}.cls-72{fill:#e9bd9d;}.cls-73{fill:#265643;}.cls-74{fill:#9cb592;}.cls-75{fill:#66a777;}.cls-76{fill:#465a64;}.cls-77{fill:#1b2827;}.cls-78{fill:#607076;}.cls-79{fill:#283339;}.cls-80{fill:#646f75;}.cls-81{fill:#eef4f4;}.cls-82{fill:#475c63;}.cls-83{fill:#657176;}.cls-84{fill:#6e848b;}.cls-85{fill:#009e62;}.cls-86{fill:#e9f5f6;}.cls-87{fill:#2a343b;}.cls-88{fill:#6fb58d;}.cls-89{fill:#4c9f78;}.cls-90{fill:#28333b;}.cls-91{fill:#28353a;}.cls-92{fill:#58656a;}.cls-93{fill:#61737b;}.cls-94{fill:#62757d;}.cls-95{fill:#6f7c82;}.cls-96{fill:#6c7c83;}.cls-97{fill:#2c383e;}.cls-98{fill:#2a353b;}.cls-99{fill:#656f75;}.cls-100{fill:#475a65;}.cls-101{fill:#475a64;}.cls-102{fill:#99cfbb;}.cls-103{fill:#d6a58c;}</style></defs><g id="Layer_2" data-name="Layer 2"><g id="Layer_1-2" data-name="Layer 1"><rect class="cls-1" x="0.5" y="0.5" width="423.75" height="245.11"/><path class="cls-2" d="M403.38,231c0,13-.06,25.92.06,38.88,0,2.08-.41,2.49-2.46,2.49q-93.53-.11-187.06-.06H1.11a4.09,4.09,0,0,1-.59-2.89c0-15.15-.08-30.29,0-45.43.5-2.26,2.38-2.55,4.14-2.78,4.23-.57,8.18.16,11.46,3.13a2.89,2.89,0,0,0,3.75.45c6.9-3.63,13.9-4,20.67.18,2.24,1.37,4.11,1.69,6.28.31a2.86,2.86,0,0,1,1.44-.34,48.39,48.39,0,0,1,5.11,0,4.93,4.93,0,0,1,.86.1,33.5,33.5,0,0,1,5.31,2.35,3.65,3.65,0,0,1,.69.47,12.89,12.89,0,0,1,1.07,1c2.57,2.55,2.57,2.55,5.29,0a5.33,5.33,0,0,1,.74-.5c3.07-1.8,6-3.75,9.72-4.15a19.66,19.66,0,0,1,9,1.1c.29,0,.57.11.86.15,1.72-.18,1.43-1.76,1.77-2.79,2.73-8.24,10.58-14,18.82-13.74a18.89,18.89,0,0,1,9,3,27.61,27.61,0,0,0,3.35,2c2.85,1.87,4.26,4.72,5.2,7.89.58,2,1.62,2.85,3.74,2.13a17,17,0,0,1,16.87,3c2.35,1.89,4.34,2.29,6.84.89,4.6-1,9-.8,13.26,1.57,1.26.71,2,.35,2.21-1.22a14.89,14.89,0,0,1,3.56-7.84,5.42,5.42,0,0,1,.6-.67A26.48,26.48,0,0,0,176,216.1a15.61,15.61,0,0,1,9.91-1.2,21.87,21.87,0,0,1,4.4,1.73c2.59,1.14,4.21,2.91,3.79,6.06a5.13,5.13,0,0,0,1.7,4.91c1,4.61,1,4.78,6,4.94,3,.1,5.85.74,8.8.65.39,0-.15,0,.2-.18.11-.06,0-.37-.16-.54-2.15-1.46-4.48-2.48-3-6.13s1.08-3.82,4.92-3a3.89,3.89,0,0,1,2.38,1.92c1.93,1.81,2.41,4.29,3,6.72,4.42,1.06,8.91.57,13.37.67.23,0,1,.24.49-.51a3,3,0,0,0-.69-.58c-1-.9-2.29-1.23-3.37-1.94s-1.45-1.52-.07-2.25c.74-.39,1.48-.79,1.69-1.61.78-3.12,2.77-2.91,5.09-2a14.68,14.68,0,0,0,3.73,1c1.58.53,3.17.08,4.75,0,2.36-.81,5.08,2.47,6.86.06,1.4-1.88,2-4.51,3.38-6.58a4.31,4.31,0,0,1,1.43-1.42c1.3-.31,2.2-1.29,3.27-2s1.8-1.21,2.77-1.71a4.47,4.47,0,0,1,.79-.31c1-.21,2-.54,3-.73,6.69-.83,12.16,1.32,16.27,6.82a37.27,37.27,0,0,1,2.57,5.46c.56,1.65,1.49,2.27,3.16,1.57,6.11-2.54,11.28-.77,15.84,3.63,1.15,1.11,2.29,1.49,3.75.66,4.16-2.38,8.44-2.16,12.62-.19,2.28,1.08,2.82.21,3.34-1.91,1.3-5.32,4.86-8.74,9.82-10.5,4.33-1.54,11,1.35,14.35,5.81.77,1,1.3,2.87,3.15,1.33,4.09-2.68,8.17-2,12.25,0a3.92,3.92,0,0,1,.85.41c1.46,1.49,2.86,1.39,4.77.46,6.78-3.31,13.38-2.9,19.57,1.68l.72.51c1.08.41,1.9-.32,2.8-.66C394.14,225.62,400.94,226.78,403.38,231Z"/><path class="cls-3" d="M401.18,229.66c-4.48-4.18-9.43-5-14.9-2.18-.64.32-1.3.59-1.73-.33,3.52-3.5,7.58-3.14,11.8-1.71a23.08,23.08,0,0,1,4.83,3Z"/><path class="cls-4" d="M377,149.84c2.17,2.07,5.13,2.83,7.46,4.69a9,9,0,0,1,3.21,5.54c.91,4.3,1.67,8.64,2.66,12.92.93,4-.51,7.94-.33,11.94.08,1.6-1.4,1.86-2.85,1.85-7.06,0-14.13,0-21.2,0q-17.78,0-35.54,0c-1,0-2.21-.38-3.11.57s-2,.85-3.07.84c-26.86-.11-53.73.33-80.59.07-6.3-1.38-5.87,0-6.49-7.52-.54-6.57,1.13-12.79,1.56-19.18a10.76,10.76,0,0,1,3.73-7.08,70.7,70.7,0,0,1,8.64-7c2.14-1.26,4.05-2.94,6.54-3.57,3.48-.58,6.93,0,10.39.2,13.23.23,26.46.93,39.69,0a98.9,98.9,0,0,1,14.29-.57c3.68.14,7.33.54,11,.68,6.89.26,13.58-1.86,20.49-1.35,4.35.31,8.7.83,13.09.8,1.91,0,2.54-.73,2.53-2.41a7.32,7.32,0,0,0-.2-2.4c-2.74-7.52-4.67-15.32-7.72-22.73a5.15,5.15,0,0,0-1-1.5c-.75-.86-1.08-2.09-2.26-2.57-6.24-.22-12.47-.71-18.71-.74-9.77,0-19.55-.18-29.32.07-4.37.11-8.72-.1-13.08-.1-1.39,0-2.86.1-3.7-1.39-.51-.22.88-1.21-.46-1.15-5.08.25-10.17,0-15.25.11-1.05,0-2,.11-2.44,1.29-.78,1.1-1.86.87-3,.78-3.5-.29-5.4.94-6.41,4.36-1.09,3.71-3.57,6.85-3.86,10.94-.12,1.65-1.31,3.69-3.88,3,1.95-5.35,3.26-10.92,6-16,2.44-4.59,8.68-8.14,13.67-7.29a24.13,24.13,0,0,0,4.15.28l50.84,0c7.44,0,14.86.78,22.32.63,4.63-.09,7.58,2.75,9.14,6.92,2.67,7.12,5.59,14.15,7.68,21.48,1,2.79,1.54,5.73,2.57,8.51a2.75,2.75,0,0,1,.22,1.16c-.13,2.28-.12,2.27,1.5,3.9A7.72,7.72,0,0,0,377,149.84Z"/><path class="cls-5" d="M242.92,187.36h84.37c3.61,0,7.22,0,10.84.17.36,0,1.3,0,1,.9-.05.15-.72.11-1.11.16a43.52,43.52,0,0,1-7.38.56c-14.54.06-29.07,0-43.61,0A12.71,12.71,0,0,1,284,189c11.69.22,23.39.18,35.09.19,3.68,0,7.37,0,11.05,0,1.07,0,2.21-.23,3.15.57,2.69,0,5.39,0,8.08,0,1,0,2.64.54,2.82-.84s-1.88-.43-2.63-1.54c15.26,0,30.36,0,45.47,0,1.37,0,2,.5,2,1.94-.3,5.66.29,11.26-1.51,16.95-1.62,5.09-.23,10.72-.16,16.11a19.76,19.76,0,0,1-.28,2.38c3.66-.43,7.29-1,10.87.16.06,0,.11.21.1.22-.22.14-.45.27-.68.4a14.85,14.85,0,0,0-11.8,1.71.32.32,0,0,1-.11-.41c-.59-3.19-.16-6.42-.3-9.62-.05-1.19-.14-2.46-1.82-1.74-4.69,2-9.62,1-14.44,1.23-.6,0-1.2,0-1.79,0-4.67,0-5.51-.46-5.38,5a3.19,3.19,0,0,1-.88,2.76.54.54,0,0,1-.54-.15c-.61-.45-1.37-.76-1.53-1.64.2-5.39.2-5.39-5.21-5.4-3.56,0-7.11,0-10.72,0a11.65,11.65,0,0,1,5.08,5.71,1.54,1.54,0,0,1-.77,1.58c-1.26.51-1.5-.62-2-1.3-3.88-5.62-9.2-7.78-15.62-6.31a6.84,6.84,0,0,0-4.35,2.46,2.82,2.82,0,0,1-2,1c-1.82-.76.29-1.89-.46-3.1-13.3,0-26.81,0-40.35,0-.46,2.16,2.54,3.86.49,6-1.55.39-1.39-1-1.82-1.8l-1.76-3.09c-4-5.87-9.5-8.06-16.37-7.06a10.93,10.93,0,0,0-3.25.9h0c-1.1.31-1.91,1.15-3,1.57a6.29,6.29,0,0,1-3.47,1.83c-4.23,1.25-7.85.14-11.22-3.43-.19,2.93-.05,5.39-.12,7.84,0,1.29.23,2.65-.68,3.78a8.14,8.14,0,0,1-4,.17.53.53,0,0,1-.34-.8c1.81-1.13,2.28-2.83,2.16-4.89-.32-5.79.82-11.56.05-17.37-.3-2.27-.32-4.58-.81-6.85C237.12,188.53,237.76,187.66,242.92,187.36Z"/><path class="cls-4" d="M194.31,226.89c-1.55-.76-2.65-1.53-2.49-3.76.43-6-.12-6.59-5.74-8.47a11.3,11.3,0,0,1-1.32-.62,2.22,2.22,0,0,1,2.47,0l5.15,2.75c.49-4.94,1.1-9.66,1.4-14.39.5-7.8,1.78-15.49,2.65-23.24,1-8.64,2.53-17.21,2.78-25.93.1-3.55,1.51-7,.61-10.65,1-.5,2.18,0,3.21-.49,1.55-.22,2.8.59,4.08,1.26,1.17,1,2.93,1.36,3.45,3.11a3.74,3.74,0,0,0,2.23,3c4.94,3.35,4.93,3.34,7.63-1.9a17,17,0,0,0,1.15-3.08,7.46,7.46,0,0,0,.44-2.34,3.13,3.13,0,0,1,2.17-3.51c1.51-.51,3.09-.88,4.27.78a95.62,95.62,0,0,1,1,12.3c0,19,0,38.05,0,57.08a33.37,33.37,0,0,1-.44,6.32c-.52,2.78.05,5,2.93,6-.26,2.15-2.39.25-3.08,1.46s-.14,2.86-1.63,3.62c-.61.31-1.37.06-1.95.5-3.12.2-6.24,1-9.38.19-.59-.87-2.14-1-1.94-2.48.23-11.18-1-22.32-.75-33.5q.15-5.88.34-11.76a17.27,17.27,0,0,1,1.53-5.48c1.06-3.65,1.12-7.43,1.46-10.33.05,1.36-.7,3.41-1.23,5.51-.06,4.44-1.93,8.58-1.86,13.06.07,4.26-1.57,8.28-2.16,12.47-1,7.38-1.77,14.79-2.83,22.16a7.68,7.68,0,0,0,1,4.57c-2.36.3-2.49,2.28-2.7,4-.23,1.87-1,2.91-2.87,3C200.77,227.38,197.35,228.72,194.31,226.89Z"/><path class="cls-6" d="M191.49,123.94c-.91-2.48,1.09-4.15,1.67-6.21,1.57-2.86,2.44-6.1,4.69-8.57,3.75-2.47,4.79-2.37,7.06,1.34,1,1.62,3.6,1.29,3.8,3.61,1,1.87,1.57,3.92,2.59,5.77a31.1,31.1,0,0,1-2.61,19,1,1,0,0,1-1.1.25c-3.31-1.76-6.9-3.09-9.46-6.06a9.41,9.41,0,0,1-.7-3.19,1.87,1.87,0,0,1,.86-1.52c4.73.86,4.44-3.38,5.59-5.59a6.37,6.37,0,0,0-.9,2.3c-.65,2.66-2.08,3.49-4.58,2.43C196.22,126,193.34,126,191.49,123.94Z"/><path class="cls-7" d="M208.21,138.94c2-6.29,3.62-12.63,2.34-19.32a29.75,29.75,0,0,0-2.46-6c-.92-2.71-3.52-4.44-4.19-7.3l1.91-.65a34.79,34.79,0,0,1,7.69,12,6.53,6.53,0,0,0,8.73,4c1.08-.38,1.23-1.14,1.31-2.08.11-1.26-.21-2.64,1.13-3.82,1.48,1.34,1.23,3.28,1.62,4.88,1,3.9,1.1,7.93,1.73,11.88a5.48,5.48,0,0,1-.59,3.51c-2.63,2.07-5.71,1.11-8.58,1.13-2.24,0-4.07.27-5.08,2.55C210.72,141.39,209.9,141.26,208.21,138.94Z"/><path class="cls-8" d="M189.88,214.17h-2.46c-3.54-.39-7-.32-10.1,1.75-1.31.88-2.31,2.14-3.64,3h0a15.77,15.77,0,0,0-4.05,8.76c-.19,1.73-1,1.95-2.4,1.14a15.25,15.25,0,0,0-13.29-1.4c-2.66,1.79-4.71,1.22-7.17-.94-5.07-4.44-11.12-5-17.35-2.77-1.78.64-2.42.38-2.95-1.41-1-3.4-2.5-6.56-5.41-8.79-3.8-3.08-7.92-5.11-13-5.22-7.19-.15-15.55,5.85-17.75,13.69-.34,1.22,0,3-2.16,3h0c-7.23-3.17-13.73-1.37-19.83,3h0A10.72,10.72,0,0,0,67,229.15c-1.2,1.51-2.27,1.13-3.36-.16a15.66,15.66,0,0,0-2.39-2.21h0a19,19,0,0,0-5.42-2.41h0a15.07,15.07,0,0,0-6.13,0c-3.26,2-5.94,1.29-9.32-.61-6.08-3.43-12.64-3-18.73.68-1.74,1-2.85,1.36-4.53-.34-3.92-3.94-9.31-4.48-14.58-1.92,0-.2,0-.41-.07-.62a.77.77,0,0,1,0-.87c3.08-2.61,9.74-2.95,13.27-.07,3,2.48,5.83,2.22,9,.8h0c3.69-.54,7.25-1.64,11.15-.72,2.7.63,5,2,7.41,3.05a5.59,5.59,0,0,0,4.21.14c5.57-1.58,10.93-1.44,15.55,2.69,1.3,1.17,2.22,1.42,4.08.33,5.85-3.45,12-6.4,19.11-4,1.74.59,2-.26,2.64-1.73,3.21-7.7,8.67-13,17.07-14.15,7.86-1.07,14.17,2.32,19,8.48,1.07,1.37,1.5,3.26,2.13,4.95s1.61,2.6,3.4,2c7-2.56,13-.13,18.65,3.91a2.69,2.69,0,0,0,3.32.32c4.54-2,9.32-1.63,13.88,0,1.56.55,1.73.63,2.26-1,1.67-5.2,4.29-9.8,9.85-11.61C182.18,212.69,186.08,212.24,189.88,214.17Z"/><path class="cls-9" d="M293.19,109.29c.65,1.42,1.93,1.28,3.1,1.19,4-.32,8,.25,12.1.13,11.74-.33,23.51-.44,35.24,0,4.6.19,9.23,0,13.82.44.6.06,1.2,0,1.6.61l-.29.34a6.4,6.4,0,0,1-2.52.92,10.87,10.87,0,0,1-3.72-.38,23.27,23.27,0,0,0-6.34.39c-3.4.65-6.72-.63-10.1-.39-3.94-.09-7.88,0-11.82,0-7.79.07-15.58,0-23.37,0-9.64-.17-19.29,0-28.93-.08a4.54,4.54,0,0,0-4.49,2.81A100.44,100.44,0,0,0,262,129.68a2.37,2.37,0,0,1-.4.92,6.07,6.07,0,0,1-4.72.72.55.55,0,0,1-.11-.84l1.13-1.23a4.42,4.42,0,0,0,3.55-4.54,8.6,8.6,0,0,1,2-5.75c.83-1,1.07-2.54,1.47-3.87,1.17-4,3.67-5.56,7.64-4.79.8.16,1.56.38,2.15-.42,0-1,.74-1.13,1.42-1.14,5.46,0,10.93-.22,16.39.09C292.76,108.85,293,109.11,293.19,109.29Z"/><path class="cls-10" d="M207.16,105.76a.49.49,0,0,0,.44-.15,1.77,1.77,0,0,1,1.81-1c1.05.22,1.64,1.09,2.38,1.73,3.35,2.89,4.37,2.84,7.32-.37a3.13,3.13,0,0,1,2.63.78c2.41,2.54,1.6,5.87,2.07,8.87a24.73,24.73,0,0,1-.05,2.71c.19,3.72-.07,4-3.8,4-4.86,0-4.86,0-6.62-4.47a46.09,46.09,0,0,0-5.19-9.11C207.6,108,206.08,107.21,207.16,105.76Z"/><path class="cls-11" d="M211.78,79.62c3.29-1.43,6.42-.34,9.57.61A11.17,11.17,0,0,0,225.47,84c2.13,1,2.51,3.16.77,4.86a8.51,8.51,0,0,0-2.2,7.74c.71,3.89-.55,6.22-3.45,8-.18,1.67,2.45.49,2,2.33a1,1,0,0,1-1.31,0l-2.33-.74c-1-1.39-.38-2.56.68-3.43,1.85-1.5,2.14-3.46,2.13-5.67,0-2.41-.34-4.85.33-7.22,1.18-.25,1.18-.25,1.17,2.28.29-1.44.1-2.42.61-3,2.12-2.31.64-3.58-1.13-5-2.21-1.8-4.34-3.68-7.45-3.07a18.67,18.67,0,0,0-7.35,3.71c-1.77,1.31-1.74,3.72-.74,5.84.47,1,1.3,1.82,1.25,3-.24,1-.62,2,.24,2.83,2.74,2.61,1.73,5.62,1,8.62l-2.06.56c.89-2.76,2.07-5.57-1.25-7.63a.37.37,0,0,1-.17-.24c-.15-4.74-2.71-9.47-.12-14.21.61-1.12,1.89-1.44,3-1.85A4.19,4.19,0,0,0,211.78,79.62Z"/><path class="cls-12" d="M221.26,106.88l1.31,0a6.58,6.58,0,0,0,3.56,1.83,1.25,1.25,0,0,1,.71,1.64c-1,3.42-.09,6.77.57,10a33.62,33.62,0,0,1,.79,7.12c-.1,2.74,1.35,5.47,0,8.22a.55.55,0,0,1-.88.08,116,116,0,0,0-2.61-19.16c-.55.13-.3.58-.36.88-.36,1.66,1,4.12-1.18,4.83a15.57,15.57,0,0,1-8.21-.08c-.34-.08-.61-.74-.79-1.19A57.1,57.1,0,0,0,206,106.56c-.16-.21-.13-.58-.18-.87l1.35.07c.77,2.76,3,4.66,4.22,7.15.89,1.8,1.77,3.59,2.69,5.38.61,1.21.51,3.16,2,3.47a15.9,15.9,0,0,0,6.51-.15,1.17,1.17,0,0,0,1-1.31c-.37-3.9-.73-7.8-1.2-11.68C222.29,108,221.64,107.46,221.26,106.88Z"/><path class="cls-13" d="M226.72,110l-.59-1.31c3.71,1,4.59,4.11,5.26,7.26a61.92,61.92,0,0,1,.74,6.84c.19,2,.62,4-.44,6.1a3.28,3.28,0,0,0,.7,3.91c1.43,1.25,2.34-.18,3.38-.77a3.93,3.93,0,0,1,2.91-.3,21.76,21.76,0,0,0,10.58-.15c2.48-.56,4.87-1.39,7.46-1.1l-.06.58c-2.27,2.1-5.35,1.65-8,2.52a35,35,0,0,0-3.66,1.13,11,11,0,0,0-4.93-.77c-2.71-1.41-4.15.74-5.86,2.13-.73-.09-1.18-.68-1.78-1a7.5,7.5,0,0,1-2-1.58c-.91-1.85-1.55-3.73-.5-5.76a4.75,4.75,0,0,0,.49-3.17C229.93,119.49,229.23,114.52,226.72,110Z"/><path class="cls-14" d="M333.27,189.77H283.05v-1.18h55C336.71,190,334.63,188.4,333.27,189.77Z"/><path class="cls-15" d="M377,149.84c-2.53-.66-4-2.6-5.74-4.37,1.12-1,1.71.42,2.76.24-.93-3.51-2.68-6.74-2.4-10.41,2.44,2.43,5.47,1,8.21,1.14,2.15.13,3.91.42,5,2.49l-.36.26a36.18,36.18,0,0,0-8.18-.69c-1.57.06-2.08.51-1.66,2.18,1,4,1.63,4.62,5.82,4.74a5.81,5.81,0,0,1,2.88.47l.3.33c-1.27,1.13-2.81.57-4.21.54C377.07,146.73,376.4,147.71,377,149.84Z"/><path class="cls-16" d="M203.9,106.34a16.31,16.31,0,0,1,4.33,7.13c.27.32.21.56-.15.74l-1.29-1.95c-.82.25,0,1.45-1,1.51-1.79-2.78-2.21-8.16-7.74-4.42-.2-.14-.27-.29-.21-.44s.11-.24.17-.24C199.64,107,201.73,106.6,203.9,106.34Z"/><path class="cls-17" d="M199.3,141.48c-3.26-1.19-6.55-2.31-9.78-3.58-1.81-.71-2.81-2.23-2-4.09,1-2.36,1.6-5,3.25-7a1.52,1.52,0,0,1,.55,1.21,14.13,14.13,0,0,1-1.42,4.27c-1.11,2.72-.8,3.52,1.79,4.75,1.72.81,3.57,1.27,5.33,2,1,.42,2.07.82,2.38,2.08C199.37,141.19,199.33,141.33,199.3,141.48Z"/><path class="cls-18" d="M190.83,128.05l-.06-1.29.72-2.82a37.88,37.88,0,0,1,7.12,2.87c.79.59,1.1,1.19,0,1.79l-.67,1.32c-.33.49-.65,1-1.32.46C195.6,126.8,194.65,126.42,190.83,128.05Z"/><path class="cls-15" d="M384.79,138.93c2.11,3.35,1.69,5.9-1.2,7.28l0,0c.32-2.42,0-5,1.19-7.23Z"/><path class="cls-19" d="M198,108.67c0,.22,0,.45,0,.68-2.14,2.49-2.65,6-4.88,8.38C194.19,114.39,195.19,111,198,108.67Z"/><path class="cls-20" d="M202.79,142.56c-1,1.14-2,.67-3,0-.17-.37-.35-.73-.52-1.1l.14-.14A2.45,2.45,0,0,1,202.79,142.56Z"/><path class="cls-21" d="M360.45,224.77c0-.81.1-1.61.12-2.42.15-6.29.14-6.29,6.52-6.29,3.49,0,7-.07,10.46,0a12,12,0,0,0,6.28-1.67c.69-.39,1.7-.91,1.67.51-.1,4.09.7,8.21-.44,12.26-6.85-4.66-13.86-5.27-21-.67C361.79,228,361.53,225.61,360.45,224.77Z"/><path class="cls-22" d="M216,173.43c-2.41,3.92-1.73,8.29-1.8,12.56-.17,11.87.3,23.72.91,35.57.05,1,.49,2.49-.83,3.31a2.32,2.32,0,0,1-1.25-.62l-1.78-1.6c-.84-.08-1.62-.27-2-1.2-1.57-1-2.09-2.15-1.77-4.26,1.38-9.05,2-18.23,3.75-27.21a166.67,166.67,0,0,0,3-20.37c0-.35.35-.69.53-1C216.19,169.94,214.88,172,216,173.43Z"/><path class="cls-23" d="M254.92,218.62c-1.43,2.4-2.95,4.77-3.43,7.6-.2,1.19-.75,1.18-1.65.73a14.35,14.35,0,0,0-5.77-1.28,1.48,1.48,0,0,1-.28-1v-9c0-1.35.42-2.5,1.82-1.25a11.65,11.65,0,0,0,7.85,2.88C254.21,217.35,255.16,217.37,254.92,218.62Z"/><path class="cls-24" d="M324,220.6l1.23-1.24a15,15,0,0,1,4.2-2.37c7.22-1.57,12.87.64,16.73,7.12a1.16,1.16,0,0,0,1.18.7.91.91,0,0,1,1.2,0c-1.15,1.4-2.18,1.65-3.13-.23-2.25-4.43-6.52-6-10.76-7.37-1.69-.56-3.63.14-5.14,1-3.9,2.34-7.39,5.1-8,10.2-.27,2.32-1.15,3.21-3.7,1.87-4.16-2.18-8.53-2.57-12.77.09a2.88,2.88,0,0,1-4-.62c-4.55-4.73-9.85-6.27-16-3.58-1.94.85-2.71,0-3.38-1.61-.8-2-1.71-3.84-2.58-5.76.21-.35.45-.38.73-.09,1.36,1.42,1.83,3.31,2.67,5a4.17,4.17,0,0,0,3.45.33,16.61,16.61,0,0,1,15.7,3.51,3.44,3.44,0,0,0,4.07.59,14,14,0,0,1,11.35,0c1.94.84,2.59.31,3.14-1.58C320.89,224.27,321.81,222,324,220.6Z"/><path class="cls-25" d="M218.05,227.48c2.92-.11,5.85-1,8.76.08,1.37,1.87,3.74,1.94,5.5,3.11.74.79,2.05.8,2.87,2.48-6-.28-11.66.26-17.31-.92C217.66,230.63,217.38,229,218.05,227.48Z"/><path class="cls-26" d="M193.71,227.05c3,.26,6.1-.27,9.09.63a60.18,60.18,0,0,1,6.57,3.42c.52.52,1.46.72,1.32,2-5.38-.46-10.79-.62-16.1-1.5C192,231.21,194,228.62,193.71,227.05Z"/><path class="cls-27" d="M137.8,223.62c5.2-2.58,10-.82,14.84,1.55,1.05-3.74,1.47-7.68,4.9-10.06-1.53,3.2-3.75,6.11-3.81,9.93a1.15,1.15,0,0,1-1.87.76C147.47,223,142.72,222.81,137.8,223.62Z"/><path class="cls-28" d="M254.53,218.68c-1.18-1.42-3-.55-4.43-1.2-1-.42-2-.63-3-1.16-3.4-1.87-3.39-1.87-3.4,2.07,0,2.29,0,4.59-.07,6.88a.51.51,0,0,1-.71-.05V212.36l.76-.84c2.8,5.27,7.34,5.56,12.09,5.26a.5.5,0,0,1-.15.69Z"/><path class="cls-29" d="M348.48,224.58l-1.2,0,.73-1.12a2.83,2.83,0,0,1,1.38-1.33c2.32-1,4.73-.8,7.15-.52,1,.34,2.18.58,2.79,1.68.46.37,1.06.62,1.17,1.3-3-1.07-6-2.42-9.39-1.28A6,6,0,0,0,348.48,224.58Z"/><path class="cls-30" d="M169.39,209c0-.2,0-.4,0-.6.87-.72,1.66-1.61,3-1.37A6.86,6.86,0,0,1,169.39,209Z"/><path class="cls-31" d="M236.9,223.7a1.12,1.12,0,0,1-1.25-.47c-1-1-2.36-.89-3.54-1.32h0c-.06-.08-.11-.2-.19-.23-4-1.34-4.74-2.44-3.81-7a23.47,23.47,0,0,0,.42-4.78c0-18.74.06-37.48,0-56.21,0-4.92-.4-9.83-.61-14.74a1.6,1.6,0,0,1,1.82-1,18.89,18.89,0,0,1,3.58,1.37,6,6,0,0,0,4.87,0c.87-.36,1.95-1.34,2.73.24-.11,5.71-.06,5.76,5.76,5.78a17.61,17.61,0,0,1,3.84.18c1.32.3,2.29.89,1.35,2.48-4.07,3.26-8.82,5.75-11.4,10.64a6.4,6.4,0,0,0-1.09,3.68c.52,4.06-1.67,7.74-1.41,11.77.23,3.76.14,7.53.2,11.3,0,1,.65,1.29,1.56,1.39,1.07.11,2.13.37,3.19.57-.14.14-.27.35-.44.39-4.18,1-4.23,1.38-3.42,5.92,1,5.53,1.73,11.09.94,16.78a42.19,42.19,0,0,0,0,8.41C240.12,221.36,239.78,223.28,236.9,223.7Z"/><path class="cls-32" d="M313,162.1q14.2,0,28.39,0c5.82,0,7.21,1.79,5.73,7.4-.94,3.59-2,7.15-3,10.74a4.26,4.26,0,0,1-4.57,3.49q-26.9,0-53.79,0c-2.18,0-3.73-1-4.24-3.06-1.12-4.59-2.2-9.2-3-13.85-.51-3,1.69-4.72,5.47-4.73C293.66,162.08,303.32,162.1,313,162.1Z"/><path class="cls-33" d="M272.83,169.27c0,2.11-.07,4.23,0,6.34.06,1.6-.62,2.16-2.13,2-9-.65-18.09-.88-26.94-3.1-2.3-.58-3.63-1.68-3.44-4.38s0-5.63,0-8.45c.08-2.61,1.43-4.29,4.13-4,8.9,1,17.78,2.07,26.67,3.11,1.26.15,1.64.92,1.63,2.09,0,2.11,0,4.22,0,6.34Z"/><path class="cls-33" d="M352.37,173.68c0,2.11.07,4.23,0,6.34-.06,1.61.63,2.16,2.16,2,9.16-.65,18.36-.88,27.33-3.1,2.34-.58,3.7-1.68,3.5-4.38s0-5.63,0-8.45c-.09-2.61-1.45-4.29-4.19-4-9,1-18.05,2.07-27.07,3.11-1.27.15-1.66.92-1.65,2.09,0,2.11,0,4.22,0,6.34Z"/><path class="cls-9" d="M267.45,145c-3.37-.71-6.79-.25-10.18-.6a1,1,0,0,1,.21-1.53c4.1-1.28,8.3-.32,12.45-.6,6.72-.07,13.43,0,20.15,0,3.41.09,6.83-.09,10.24,0,3.75-.08,7.5,0,11.25,0,2.35.12,4.7-.05,7.05,0,1.19.12,2.39,0,3.59.07.8,0,1.61,0,2.42,0s1.88-.43,2.79.08c.54.43,1.05,1,1.76,1,4.15,0,8.42,1.11,12.36-1.17,6,0,12,0,18.07,0,2,.14,4,0,6,.13,2.25.17,2.57-1,2.1-2.75A152.71,152.71,0,0,0,363.19,125c-.89-2.35-1.83-4.68-2.74-7-.43-1.11-1-2.23-.51-3.49.1-.12.2-.24.31-.35a1.58,1.58,0,0,1,1.49,1.28c1.57,5.13,4.19,9.88,5.14,15.24a20.39,20.39,0,0,0,2.06,5.8,10.76,10.76,0,0,1,1.05,5.24c0,1.78-.55,3-3.3,2.93-7.5-.29-15-1.7-22.55-.4-6.93,1.19-13.86.87-20.84.28a61,61,0,0,0-15.14.52,17.79,17.79,0,0,0-6.5-.27c-10.33.63-20.67-.12-31,0C269.59,144.71,268.47,144.4,267.45,145Z"/><path class="cls-34" d="M257.34,143.07l-.07,1.32L251.86,148c.15-1.28-.38-1.85-1.69-1.81-1.89.06-3.79,0-5.68,0-4.26,0-5.29-1.29-4.44-5.56.12-.59.3-1.16.46-1.74-.52-.74-.13-1.25.4-1.74a4.36,4.36,0,0,1,1.89-.77c3.88.1,7.82-.83,11.64.5,1.36,1.08,1.11,2.45.6,3.81-.87,2.32.85.87,1.46,1A1.11,1.11,0,0,1,257.34,143.07Z"/><path class="cls-35" d="M267.45,145c.68-.83,1.63-.59,2.49-.59q17.87,0,35.73,0c.86,0,1.81-.24,2.49.6C294.59,145.82,281,145.14,267.45,145Z"/><path class="cls-36" d="M303,158.61H281.64V158H303Z"/><path class="cls-37" d="M293.19,109.29c-5.26,0-10.51,0-15.77,0-.95,0-2-.34-2.79.58-.86-1.47.2-1.76,1.22-1.77,6.39,0,12.79,0,19.29,0C294.82,109.52,293.89,109.17,293.19,109.29Z"/><path class="cls-38" d="M319.32,158.58a16.94,16.94,0,0,1-11.29.26C310.6,157.26,315.33,157.12,319.32,158.58Z"/><path class="cls-39" d="M274.61,185.57c-1.45-.82-1.42-1.65,0-2.48a1.19,1.19,0,0,1,1.46,1.39A1.14,1.14,0,0,1,274.61,185.57Z"/><path class="cls-40" d="M274.61,185.57c1.45-.83,1.52-1.66,0-2.48,1.52-1,2.1.35,2.11,1.23S276.14,186.58,274.61,185.57Z"/><path class="cls-41" d="M352.23,167.84a.85.85,0,0,1-1,.8c-.4,0-.8-.13-.86-.62a.88.88,0,0,1,.83-1C351.76,166.92,352,167.36,352.23,167.84Z"/><path class="cls-9" d="M359.05,111.7a3.49,3.49,0,0,1,1.2,2.41l-.15.12c-1.46-.25-1.78-1.09-1.2-2.38Z"/><path class="cls-42" d="M307,203c5.35.23,10.7.38,16.06.27,5.87-.13,11.75.17,17.63.26a11.49,11.49,0,0,0,3.27-.17c3.21-.93,4.64.39,3.35,4.56-.79,2.56-2.94,3.53-5.38,3.54q-28.27.06-56.56,0a5.6,5.6,0,0,1-5-2.3,4.94,4.94,0,0,1-.74-4.88c.77-1.61,2.56-1,4.05-.92a159,159,0,0,0,22.68-.36A.37.37,0,0,1,307,203Z"/><path class="cls-43" d="M323.72,220.89c-1.42,2.72-3.36,5.21-3.6,8.46-.1,1.3-.89,1-1.69.6a14.33,14.33,0,0,0-14.25,0c-1.16.62-1.81,0-2.57-.7-4.86-4.61-10.46-5.92-16.77-3.68-1.56.56-2.5.39-2.59-1.49,1.23-.88.89-1.87.17-2.85a9.78,9.78,0,0,1-1.57-4h44.24c-.13,1.58-1.34,2-1.92,2.87C322.7,220.74,323.18,220.84,323.72,220.89Z"/><path class="cls-44" d="M371.26,196.54c3.09,0,6.18,0,9.26,0,2.53,0,3,.95,1.87,3.19-2.28,4.39-6.29,6.35-10.75,7.37a36.05,36.05,0,0,1-9.79.78c-1.92-.09-2.88-.76-2.83-2.91.24-9.62-1.57-8.33,8.06-8.41,1.4,0,2.79,0,4.18,0Z"/><path class="cls-45" d="M258.84,196.57c3.09,0,6.17,0,9.25,0,2,0,3,.68,2.7,2.9a46.46,46.46,0,0,0,0,5.66c0,1.65-.56,2.72-2.37,2.75-5.4.1-10.7-.29-15.67-2.8a12,12,0,0,1-5.48-5.71c-1-2.11-.21-2.77,1.74-2.79,3.28,0,6.56,0,9.84,0Z"/><path class="cls-46" d="M361.23,223.75l-2.5-1.06a8,8,0,0,0-7.62.65l-1.2.59c-2-2.14-3.75-4.55-6.78-6.71H360c1,0,1.77.32,1.73,1.52C361.7,220.42,362.16,222.16,361.23,223.75Z"/><path class="cls-47" d="M307,203h-.6c-.4-.26-1.09-.48-1.13-.79-.09-.7.71-.48,1.08-.58,3-.8,6.12-.28,9.18-.38,2.78-.08,5.56,0,8.35,0,1,0,2.2-.21,3.05,1.19-5.72,0-11.27,0-16.81,0C309,202.53,307.88,202.12,307,203Z"/><path class="cls-48" d="M351.81,199.43c.44-1.72,1.18-.82,1.82-.18a1.86,1.86,0,0,1,0,2.9c-.67.71-1.39,1.47-1.81-.21C352.21,201.11,352.71,200.27,351.81,199.43Z"/><path class="cls-49" d="M351.81,199.43c.83.07,1.66.28,1.66,1.27s-.83,1.2-1.66,1.24C350.58,201.11,351.14,200.27,351.81,199.43Z"/><path class="cls-50" d="M202.79,142.56l-3.36-1.22c-1.7-2-4.21-2.14-6.41-3-5.26-2-5.51-2.46-3.29-7.54.4-.91.74-1.86,1.1-2.79,1-1.34,1.93-2.84,4-1.59,1.5.92,3.13,1.76,2,4,.24,1.05,1.16,1.62,1.73,2.44l9.69,6c1.69,1.56,3.57,1.18,5.48.55a2.12,2.12,0,0,1,2.1-.41,10.78,10.78,0,0,1,3.45,2,2.91,2.91,0,0,1,.8,1.59,3.74,3.74,0,0,1-1.17,2.82,8.23,8.23,0,0,1-8.34.33c-1.2-.64-2.45-1.22-3.6-2C205.53,143.48,204.31,142.5,202.79,142.56Z"/><path class="cls-51" d="M219.59,142.49l-.63-1.13c1.86-.25,2.81-1.59,3.58-3.05a9.26,9.26,0,0,1-4.3-.26c-1.39-.31-2,.39-2.28,1.61l-2.27-.17c.13-2.44,1.16-3.49,3.77-3.14,3.29.43,6.65.84,9.87-.55l.64,0a5.59,5.59,0,0,1,2.76-1.09,18.8,18.8,0,0,1,2.12.1,1.38,1.38,0,0,1,1.35.81c.56,1.84-.59,2.42-2,2.81a12,12,0,0,0-2.39.14l-1.89.38a14.4,14.4,0,0,0-2.63,0c-1.62.3-3.1.79-2.41,3.07a3.92,3.92,0,0,1-.77,3.07c-.84.39-1.08-.34-1.47-.78A12.58,12.58,0,0,1,220,143Z"/><path class="cls-52" d="M220.83,143.76l1.27,1.33a26.2,26.2,0,0,1-1.06,2.76c-3.17,6.1-3.19,6.1-8.78,2a1.76,1.76,0,0,1,.78-1.43c4.2,1.27,4.2,1.27,6.33-2.94.18-.36,0,.12.17-.24C220,144.78,220.19,144.08,220.83,143.76Z"/><path class="cls-53" d="M216,173.43c-.82.37-1.23.18-1.2-.81,0-1.35,0-2.69,0-4a27,27,0,0,1,2.27-7.89A36.48,36.48,0,0,1,216,173.43Z"/><path class="cls-54" d="M206.93,143.82c1.66,0,2.89,1.79,4.3,1.56,1.05-.18,2.77,2.94,3.33-.49.05-.31,1.1.15,1.46.54,1.06,1.18,1.68.11,2.42-.39,1,1.86-.26,3.21-1.36,4.17s-2.13-.42-3.11-1q-.53-.3-1.05-.57c-.78-.74-2.19-.07-2.78-1.25S207.59,145.21,206.93,143.82Z"/><path class="cls-55" d="M210.14,146.39a3.18,3.18,0,0,1,3,.62,1.79,1.79,0,0,1-.21,1.59,1.26,1.26,0,0,1-.7,1.29C210.81,149.19,209.6,148.33,210.14,146.39Z"/><path class="cls-56" d="M198.62,128.6a1.55,1.55,0,0,0,0-1.79c2,.86,3.23.57,3.77-1.9a8.16,8.16,0,0,1,2.74-4.21,46.4,46.4,0,0,0-1.5,4.59C203,128.08,201.78,129.79,198.62,128.6Z"/><path class="cls-57" d="M198.52,132.92c-1.08-.45-3.1-.22-1.73-2.44l1.16-.56C198,130.94,198.84,131.82,198.52,132.92Z"/><path class="cls-58" d="M208.08,114.21l.15-.74a11.16,11.16,0,0,1,2.32,6.15C209.19,118.06,208.92,116,208.08,114.21Z"/><path class="cls-59" d="M257.34,143.07l-.57-1.09a27.21,27.21,0,0,1,2.61-9.69,3.61,3.61,0,0,1,2.45-1,20.64,20.64,0,0,0,2.36.17c.74-.06,1.45-.27,1.34-1.2s-.76-1.09-1.55-1a9.56,9.56,0,0,1-2.59.59c.21-4.15,2.56-7.6,3.64-11.46,1.49-5.28,4.55-7.3,10.24-6.88,8.29.61,16.65.2,25,.23,1.73,4.46,1.73,4.4,6.73,4.49,4.77.08,9.55-.39,14.3.29,1.84,1.58-.08,2.22-.86,2.87-5.6,4.65-11.21,9.31-17,13.7-1.47,1.11-2.62,2.81-4.72,2.92a1.62,1.62,0,0,1-.64-.73c-1.33-5-1.52-5.12-6.68-5.23-4.35-.09-8.69,0-13,0-1.17,0-2.39.19-3.44-.58-.35-1.92,1.23-1.33,2.11-1.66.95.06,1.76-.54,2.68-.63,3.71,1.12,7.5.7,11.26.51,2.23-.11,3.64-2.74,3-5-.31-1.14-1-1.39-2-1.07s-2.21,1-3.47.59a1.49,1.49,0,0,1-.81-1c.4-1.26,1.39-1.11,2.34-1.19a84.84,84.84,0,0,1-10.09.32c-3.54.08-4.11.86-3.3,4.46a1.09,1.09,0,0,1-.49,1.12c-1.76.59-3.59.93-5.31,1.63-.37.15.06-.11-.27.11-.56.39.12.21.2.33.66.07,1.28.28,1.93.4a3.06,3.06,0,0,1,2,.82c-.21,1.71-1.76,1.15-2.68,1.64s-2.25-.12-2.75,1.1c-.39,1,.53,1.3,1.13,1.73a2,2,0,0,1,.52.72c-.08,2.95-.08,5.9-1.14,8.72Z"/><path class="cls-60" d="M299.17,135.91q10.89-8.83,21.76-17.67a12.76,12.76,0,0,0,1-1.06c.4-1.66,1.77-2.43,3-3.33,1.88-2.09,4.35-1.91,6.82-1.85a40.55,40.55,0,0,0,4.41,0c3.42-.59,6.77.62,10.18.38a1,1,0,0,1-.22,1.33c-2.46,1.94-4.32,4.62-7.24,6a5.79,5.79,0,0,1-1.25.49,24.57,24.57,0,0,1-4.77.23c-3.14.08-3.84.78-3.93,3.93a21.47,21.47,0,0,1,.17,3.31c-.91,2.39-3.61,2.94-4.92,4.93-3.37,3.23-7,6.22-10.46,9.3a4.65,4.65,0,0,1-2.06,1.13,86.65,86.65,0,0,1-11.28,0C298.22,140.94,298.13,138.53,299.17,135.91Z"/><path class="cls-61" d="M324.82,114.64,322,117.18l-17.58,0c-3.62,0-4.85-1.62-4.12-5.32h24.2A1.67,1.67,0,0,1,324.82,114.64Z"/><path class="cls-62" d="M338.65,119.09a43.47,43.47,0,0,0,7.71-6.75c2.22-1.09,4.52-.58,6.8-.36-.09,2.33-2.39,2.87-3.5,4.38-.75,1-2,1.58-3,2.43-1,.67-1.21,2.47-2.94,2.1C342.25,119.76,339.8,121.32,338.65,119.09Z"/><path class="cls-63" d="M358.9,111.85a3.08,3.08,0,0,0,1.2,2.38c1.91,6.55,5,12.66,6.69,19.31.63,2.53,1.26,5.06,1.94,7.57.39,1.48-.15,2.06-1.6,2-2.29,0-4.57,0-6.86,0-.19-.54.14-.82.52-1.08a6.16,6.16,0,0,1,1.64-.67,12.08,12.08,0,0,1,1.47-.2c2.68-.28,3-.78,2.29-3.46a184.84,184.84,0,0,0-6.89-20.07c-.47-1.5-.72-3.13-2.19-4.09a3.08,3.08,0,0,1-.59-.55.59.59,0,0,1,.12-.72A3,3,0,0,1,358.9,111.85Z"/><path class="cls-64" d="M356.64,112.31c0,.21,0,.42.05.63-.48,1.47-1.82,2.22-2.72,3.34a31.91,31.91,0,0,1-2.62,2.45c-.7.45-1.36,1-2.08,1.4-1.08.51-2.17.94-3.16-.11-.61-.64-.3-1.22.33-1.68l6.72-6.36Z"/><path class="cls-65" d="M262,131.6l-2.25.77c-1,.83-2.35.64-3.51,1a8.2,8.2,0,0,1-1.78.24,10.21,10.21,0,0,0-3,.3,5.74,5.74,0,0,1-.82.19,12.9,12.9,0,0,0-2.83.42A5.73,5.73,0,0,1,245,135l-.34-.25c.18-1.83,1.83-1.55,2.87-1.82,3-.76,6.08-1.25,9.12-1.85l4.62-.71A.86.86,0,0,1,262,131.6Z"/><path class="cls-66" d="M262,131.6l-.71-1.25a1.19,1.19,0,0,0,.11-.42c1.39-1.05,2.82-2.46,4.56-1,.55.47,1.29,2,.39,2.69A3.34,3.34,0,0,1,262,131.6Z"/><path class="cls-67" d="M324.82,114.64a4.79,4.79,0,0,0-.37-2.82l11.73.14a8.15,8.15,0,0,1-1.73.3C331,112.08,327.6,112.08,324.82,114.64Z"/><path class="cls-68" d="M209.66,105.05c0-1.5,0-3,.09-4.49s0-2.53-1.44-3.3c-2-1.12-1.67-2.45-.11-3.74,1.82-.78,2.3-2.25,2.21-4.11-.09-2.09.31-4,2.5-5,2-.91,3.62-.07,5.11,1.25a13.39,13.39,0,0,0,3,1.82c.84.41,2,.69,1.7,2.06,0,2.92-.08,5.84,0,8.75,0,2.08-.49,3.8-2.43,4.78a2.58,2.58,0,0,0-1.38,3c-.9,3.31-2.77,4.13-5.6,2.34A14.25,14.25,0,0,1,209.66,105.05Z"/><path class="cls-69" d="M222.76,89.59c-2-1.8-4.64-2.75-6.79-4.5-1.83-1.5-4.49.5-4.56,3,0,1.3-.14,2.6-.24,3.89-.17,2.14-1.24,2.5-3,1.51-.82-1.46-2.23-2.62-2.46-4.38-.41-3.13,1.23-5.08,4.32-6.49,2.37-1.08,4.24-3.11,7.26-2.55,4,.74,6,4.07,8.88,6.23.5.37,0,1.21-.47,1.55-1.54,1.09-2,2.69-2.19,4.91Z"/><path class="cls-70" d="M226.72,110c3,2.32,3.26,5.81,3.73,9.19.31,2.2.59,4.39.89,6.59.14,1.08.08,2-1.21,2.36-1,.62-1.91.62-2.59-.5-.68-5-1.41-9.9-2-14.86C225.45,111.81,224.67,110.2,226.72,110Z"/><path class="cls-71" d="M227.54,127.64l2.59.5a11.08,11.08,0,0,0,.8,5.37,1.31,1.31,0,0,1,.1,1.72l-3.06.53C227.83,133.05,227.68,130.35,227.54,127.64Z"/><path class="cls-72" d="M231.54,137.85c1.32-.24,2.6-.52,2.66-2.27,1.83-2.9,3.4-3.47,5.67-2.06.47.83,1.3,1.5,1.19,2.61a4.58,4.58,0,0,1-4.32,3.88C234.82,140.1,232.49,140.46,231.54,137.85Z"/><path class="cls-73" d="M240.62,135.39c-.19-.65-2.28-.52-.75-1.87,1.72-.06,3.83-1.76,4.8,1.21h0c-.35,1.93-1.86,1.56-3.15,1.63A1.53,1.53,0,0,1,240.62,135.39Z"/><path class="cls-74" d="M231,135.23c0-.58-.07-1.15-.1-1.72l1.92,1.26A1.79,1.79,0,0,1,231,135.23Z"/><path class="cls-4" d="M384.76,139c-.18,2.44.75,5.08-1.19,7.23-1.19,0-2.39.08-3.58,0-1.45-.11-3.43.74-4.23-.61a33.13,33.13,0,0,1-2.65-7c-.26-.81.63-.89,1.2-.86C377.82,137.92,381.46,137,384.76,139Z"/><path class="cls-4" d="M161.9,216.51c1.38-.1,2.73-.14,3.55,1.32A9.6,9.6,0,0,1,161.9,216.51Z"/><path class="cls-5" d="M351.11,223.34c-.38-.33-.39-.85,0-.94,2.68-.57,5.37-1.38,8.11-.29.06,0,.09.12.14.18l-.66.4C356.17,222.68,353.58,222.35,351.11,223.34Z"/><path class="cls-75" d="M240.62,135.39l.53.65a1.19,1.19,0,0,1-.07,1.68,1.27,1.27,0,0,0-.57,1.19c-3.68,2.89-7.2,1.54-10.71-.39a1.71,1.71,0,0,1,1.74-.67C235.47,141.15,239.51,140.06,240.62,135.39Z"/><path class="cls-76" d="M332.09,168.6c0,7.84,0,7.84-7.64,7.84-8.86,0-17.72-.1-26.58.05-2.77,0-3.84-.85-3.53-3.63a39.78,39.78,0,0,0,0-4.23c1-1.1,2.36-.92,3.63-.92q15.22,0,30.45,0C329.72,167.71,331.06,167.52,332.09,168.6Z"/><path class="cls-77" d="M312.63,181.31c-7.07,0-14.14,0-21.21,0-1.23,0-2.45,0-3.19-1.18-.4-.63-1.24-1.34-.6-2.11s1.27-.05,1.82.37a4.38,4.38,0,0,0,2.88.48h41.84c1,0,2,.19,2.88-.49.45-.34,1-.89,1.46-.08.32.61-.12,1.16-.55,1.59a5.42,5.42,0,0,1-4.11,1.43C326.78,181.29,319.71,181.31,312.63,181.31Z"/><path class="cls-78" d="M332.09,168.6l-37.73,0h0a.92.92,0,0,1,0-1.26c.72-.77,1.67-.55,2.54-.56h32.31a5,5,0,0,1,2.88.6.81.81,0,0,1,0,1.19Z"/><path class="cls-76" d="M332.1,168.59V167.4c.69.16,1.56-.31,2.08.6C333.66,168.9,332.79,168.44,332.1,168.59Z"/><path class="cls-76" d="M294.37,167.37c0,.42,0,.84,0,1.26-.53-.14-1.43.16-1.42-.64S293.84,167.49,294.37,167.37Z"/><path class="cls-79" d="M269.71,143.16c-.55-3.08.4-6,.75-9,.4-.79-.6-1.46-.19-2.26.8-1.1,2-.76,3-.77,4.55,0,9.1,0,13.66,0-4.15,0-8.3,0-12.45,0-1,0-2,.26-2.78-.65.7-1.09,2.22,0,2.92-1.15h0l17.35,0c5.72,0,6.58.86,6.6,6.64-1.16,3.26-4.51,4.16-6.69,6.31-.41.4-1.07.5-1.55.88C283.47,143.53,276.59,143.38,269.71,143.16Z"/><path class="cls-79" d="M360.93,142.53l-.66.62c-5.47,0-10.95,0-16.43.09a4.74,4.74,0,0,1-2.56-.61c-2.15-.3-4.2-.55-5.75-2.57-1.14-1.49-2.76-1-3.71.51a4.23,4.23,0,0,1-4.82,2c-.79.12-1.4,1-2.32.52-.46-1.73.88-2.58,1.84-3.46,4.16-3.84,8.4-7.59,12.57-11.42,2.46-2.26,4.57-4.91,7.55-6.56,2.16.78,1.78,2.66,1.65,4.3a2,2,0,0,0,1.14,2.29c1.92,1.25,4.11,2.46,3.15,5.77-.66,2.29,1,3.88,3.44,4.23a7.25,7.25,0,0,1,3.91,1.22C360.89,140.3,361.76,141.13,360.93,142.53Z"/><path class="cls-80" d="M346.47,122c-5.3,5.54-11.12,10.52-16.73,15.72-1.82,1.69-3.92,3.09-5.06,5.42l-2.21-.13c-.79-.78-.11-2.23-1.26-2.84.28-1.8,2.48-1.45,3.1-2.86,3.4-3.5,7.34-6.39,10.75-9.87a6.36,6.36,0,0,1,.66-.5c1.78-1.05,3-2.79,4.55-4.07,1.22-.75,2-2.33,3.74-2.12,1.45-.15.87-2.38,2.43-2.4-.22,3.49,1.92,1,3,1.22a.93.93,0,0,1,.14.79C349,121.74,347.68,121.77,346.47,122Z"/><path class="cls-81" d="M327,142.61c1.71-1.06,4-1,4.92-3.59.42-1.19,2.79-1.42,3.39-.41,1.44,2.41,4.09,2.56,6,4-.16.71-.38,1.48-1.22,1.49-4.08,0-8.16,0-12.23,0C326.81,144.14,326.89,143.34,327,142.61Z"/><path class="cls-82" d="M324.87,137.67c-.54,1.76-2.55,1.38-3.54,2.49a4.72,4.72,0,0,1-2.27,2.86,25.7,25.7,0,0,1-7.38,0c3.78-3.83,8-7.2,12.05-10.69.68.79.28,1.68.19,2.53C323.8,135.93,323.8,137,324.87,137.67Z"/><path class="cls-83" d="M290.35,143.11c2.21-3,5.81-4.42,8.24-7.19h.58A23,23,0,0,0,300.4,143,61.33,61.33,0,0,1,290.35,143.11Z"/><path class="cls-84" d="M319.06,143a4.65,4.65,0,0,1,2.27-2.86c2.75,0,.58,2,1.14,2.84Z"/><path class="cls-4" d="M256.05,132.87c1.14-.82,2.45-.41,3.69-.5a51.15,51.15,0,0,1-3,9.61c-1,.3-1.59,1.5-2.92,1.33-.59-2,1.58-3.56,1-5.56-.51-1.29.23-2.34.62-3.45A10.3,10.3,0,0,0,256.05,132.87Z"/><path class="cls-85" d="M256.15,134.12c-.43,1.21-.85,2.42-1.27,3.63-4.14-1.36-8.4-.3-12.59-.62,1.39-2.4,4.11-2.08,6.16-2.62C250.84,133.87,253.53,132.83,256.15,134.12Z"/><path class="cls-13" d="M256.15,134.12c-4.74.47-9.46,1-13.86,3l-1.21.59c0-.56,0-1.12.07-1.69,1.24-.24,2.55-.31,3.52-1.31l3-.61c1-.7,2.17,0,3.14-.55a.64.64,0,0,0,.45,0c.95-.73,2.16,0,3.13-.57l1.65-.08C256.65,133.25,256.7,133.66,256.15,134.12Z"/><path class="cls-86" d="M316.5,158.75h-5.79v-.24h5.79Z"/><path class="cls-87" d="M216,139.66c-.14-.67-1.29-.87-.87-1.72a1.78,1.78,0,0,1,2.08-.78,24.93,24.93,0,0,0,6.94.51c-1.51,1.39-2.53,2.62-2.18,4.47-1.16-.19-1.92-1-3-.78A7.13,7.13,0,0,1,216,139.66Z"/><path class="cls-88" d="M213,148.6c-.4-.59.25-1,.21-1.59a7.17,7.17,0,0,1,.8.35c3.07,1.87,3.46,1.67,4.47-2.32a5.12,5.12,0,0,0,1.15-2.55l.55.27a2.9,2.9,0,0,1,0,2.81,10.83,10.83,0,0,0-.53,1C217.54,151.64,217.5,151.66,213,148.6Z"/><path class="cls-89" d="M220.13,145.57c0-.94,0-1.87,0-2.81.53.12.54.6.69,1C220.65,144.38,220.93,145.19,220.13,145.57Z"/><path class="cls-90" d="M288.38,121.94c1-.31,2.1-.56,3.11-1,2.52-1,3.55-.47,3.4,2.24-.24,4.28-.91,5.49-4.89,5.41-2.57,0-5.15-.09-7.72,0a3.45,3.45,0,0,1-2.87-1.19c-1.47.67-2.94,1.08-4.33-.19a.94.94,0,0,1,.49-1.26c3.05-1.37,6.21-2.43,9.36-3.55A5.94,5.94,0,0,1,288.38,121.94Z"/><path class="cls-91" d="M276.42,125.06c-2.06-.63-1.18-2.31-1.06-3.52a2.31,2.31,0,0,1,2.59-2h12.93c-.85,1.25-2.34.87-3.12,1.79C284.13,123,280.5,124.75,276.42,125.06Z"/><path class="cls-92" d="M271.72,130.41h18.81c-.86,1.64-2,1.21-3,1.22-4.78.05-9.57,0-14.35.06-.94,0-2.33-.64-2.64,1.1a.91.91,0,0,0-.65,1.27c-1.73,0-1.59-1.1-1.61-2.37,0-1.81,1.21-1.06,2-1.22A9.85,9.85,0,0,1,271.72,130.41Z"/><path class="cls-92" d="M276.42,125.06c3.8-1.18,7.43-2.89,11.34-3.71l.62.59c-4.15,1.53-8.2,3.37-12.57,4.24-.19-.11-.25-.22-.2-.34s.12-.18.18-.18Z"/><path class="cls-93" d="M275.79,125.66a3,3,0,0,1,0,.52c-.21.22-.43.43-.65.64-1.13,1.78-3.19,1.13-4.73,1.81l-2.59-.21A15.19,15.19,0,0,1,275.79,125.66Z"/><path class="cls-92" d="M270.43,128.63c1.27-1.42,3.18-1.14,4.73-1.81,1.27,1.23,2.86.26,4.25.64a1.76,1.76,0,0,1-1.83,1.17,6.76,6.76,0,0,0-5.26.58Z"/><path class="cls-94" d="M268,126.76c.71-1.69,1.44-2.64,2.87-2.82.16,0,.57.41.53.53C271,125.89,269.83,126.39,268,126.76Z"/><path class="cls-95" d="M272.32,129.21c1.57-1.87,3.39-1.45,5.26-.58-1,.17-2.12-.33-2.94.63h0Z"/><path class="cls-96" d="M269.89,134.06c-.58-.84-.28-1.22.65-1.27.52.13,1.4-.06,1.43.6,0,1-1,.55-1.51.73A2.76,2.76,0,0,0,269.89,134.06Z"/><path class="cls-97" d="M324.87,137.67c-.95.24-1.85.63-1.81-1.09a20.51,20.51,0,0,1,.67-4.29c1-2,3.08-2.95,4.8-4.22.47-.66.74-1.58,1.83-1.41,1.66,1,3.64-.09,5.34.78C332.63,131.44,328.25,134,324.87,137.67Z"/><path class="cls-98" d="M335.7,127.44c-1.85.14-3.85,1.66-5.41-.64-.29-1,.35-1.53,1-2,2.31-1.7,4.28-3.84,6.77-5.29l.62-.44c1.05.86,2.27.34,3.41.46.86.09,1.87-.16,1.95,1.19l-3.46,2.49c-1.92,1-3,3-4.86,4.21Z"/><path class="cls-99" d="M338,119.53c-1.95,3.12-5.51,4.46-7.74,7.27l-1.76,1.27c-.1-2.16-.76-4.26-.09-6.51.43-1.46,1-2,2.43-2C333.26,119.57,335.65,119.55,338,119.53Z"/><path class="cls-100" d="M359.65,117.15c3.46,6.76,5.36,14.09,7.63,21.28.87,2.75.08,3.52-2.86,3.55-.79,0-1.59,0-2.38,0-1.61-2-2-4.7-3.63-6.8a5.55,5.55,0,0,0-2.91-2.25,9.43,9.43,0,0,1-5.68-4.92,4.22,4.22,0,0,1,1.41-5.72c1.81-1.34,2.66-3.47,4.22-5C356.82,116,358.18,115.16,359.65,117.15Z"/><path class="cls-101" d="M359.65,117.15c-3.37-2-3.94,1.56-5.47,2.95-1.18,1.06-1.37,3-3.46,3.39-1.19.24-1.05,4.32.36,5.73s3,3.3,5.52,3.08c.68-.06,1.48-.11,1.75.77.95,3.09,3.74,5.4,3.69,8.91a1.11,1.11,0,0,1-1.11.55c-.25-2.28-1.73-3.13-3.78-3.33-5.15-.52-5.85-1.76-5-7,.11-.71-1.43-3-3.22-3.46a9.7,9.7,0,0,0-1.84-.12c.22-2.29,1.71-4.65-.61-6.59,1-.61,2-1.21,3-1.81a8.29,8.29,0,0,1,1.77-1.92,6.49,6.49,0,0,1,2.37-2.34c1.43-.72,2.25-2.19,3.63-3C359.18,113.68,359.46,115.38,359.65,117.15Z"/><path class="cls-100" d="M357.23,113c-1,1.26-1.79,2.77-3.63,3a9.56,9.56,0,0,1,3.09-3A3.25,3.25,0,0,1,357.23,113Z"/><path class="cls-100" d="M351.23,118.26a3.28,3.28,0,0,1-1.77,1.92v-.62A2.31,2.31,0,0,1,351.23,118.26Z"/><path class="cls-102" d="M254.4,133a5.23,5.23,0,0,1-3.13.57C252.16,132.49,253.33,133,254.4,133Z"/><path class="cls-102" d="M250.82,133.56a5,5,0,0,1-3.14.55C248.59,133.1,249.75,133.58,250.82,133.56Z"/><path class="cls-103" d="M218.88,95.66c-.63-1.62-1.13-2.46-1-3.8C219.19,92.89,219.6,93.75,218.88,95.66Z"/><path class="cls-97" d="M335.69,127.44c1.41-1.65,2.5-3.67,4.85-4.21C339.09,124.82,337.92,126.75,335.69,127.44Z"/><circle class="cls-2" cx="410.47" cy="241.87" r="13.79"/><ellipse class="cls-2" cx="152.49" cy="229.66" rx="19.81" ry="16.09"/></g></g></svg>