<svg width="15" height="13" viewBox="0 0 15 13" fill="none" xmlns="http://www.w3.org/2000/svg">
<path id="Vector" d="M13.25 0.8125C13.0833 0.325 12.5833 0 12.0833 0H2.91667C2.33333 0 1.91667 0.325 1.75 0.8125L0 5.6875V12.1875C0 12.5938 0.416667 13 0.833333 13H1.66667C2.16667 13 2.5 12.5938 2.5 12.1875V11.375H12.5V12.1875C12.5 12.5938 12.9167 13 13.3333 13H14.1667C14.5833 13 15 12.5938 15 12.1875V5.6875L13.25 0.8125ZM3.16667 1.625H11.75L12.6667 4.0625H2.33333L3.16667 1.625ZM13.3333 9.75H1.66667V5.6875H13.3333V9.75ZM3.75 6.5C4.41667 6.5 5 7.06875 5 7.71875C5 8.36875 4.41667 8.9375 3.75 8.9375C3.08333 8.9375 2.5 8.36875 2.5 7.71875C2.5 7.06875 3.08333 6.5 3.75 6.5ZM11.25 6.5C11.9167 6.5 12.5 7.06875 12.5 7.71875C12.5 8.36875 11.9167 8.9375 11.25 8.9375C10.5833 8.9375 10 8.36875 10 7.71875C10 7.06875 10.5833 6.5 11.25 6.5Z" fill="white"/>
</svg>
