<svg width="40" height="40" viewBox="0 0 40 40" fill="none" xmlns="http://www.w3.org/2000/svg">
<g id="Frame" clip-path="url(#clip0_174_2)">
<path id="Vector" d="M20 40C31.0457 40 40 31.0457 40 20C40 8.9543 31.0457 0 20 0C8.9543 0 0 8.9543 0 20C0 31.0457 8.9543 40 20 40Z" fill="#019B62"/>
<path id="Vector_2" d="M20.0625 23.7273V22.8068C20.0625 22.0909 20.2159 21.429 20.5227 20.821C20.8352 20.2131 21.2869 19.7244 21.8778 19.3551C22.4688 18.9858 23.1903 18.8011 24.0426 18.8011C24.9119 18.8011 25.642 18.9858 26.233 19.3551C26.8295 19.7188 27.2784 20.2045 27.5795 20.8125C27.8864 21.4148 28.0398 22.0795 28.0398 22.8068V23.7273C28.0398 24.4432 27.8864 25.1051 27.5795 25.7131C27.2727 26.321 26.821 26.8097 26.2244 27.179C25.6278 27.5483 24.9006 27.733 24.0426 27.733C23.179 27.733 22.4517 27.5483 21.8608 27.179C21.2699 26.8097 20.821 26.321 20.5142 25.7131C20.2131 25.1051 20.0625 24.4432 20.0625 23.7273ZM22.7812 22.8068V23.7273C22.7812 24.0909 22.8693 24.4403 23.0455 24.7756C23.2273 25.1108 23.5597 25.2784 24.0426 25.2784C24.5369 25.2784 24.8693 25.1165 25.0398 24.7926C25.2102 24.4631 25.2955 24.108 25.2955 23.7273V22.8068C25.2955 22.4261 25.2131 22.0682 25.0483 21.733C24.8892 21.392 24.554 21.2216 24.0426 21.2216C23.5653 21.2216 23.2358 21.392 23.054 21.733C22.8722 22.0682 22.7812 22.4261 22.7812 22.8068ZM11.0114 13.7386V12.8182C11.0114 12.0909 11.1676 11.4261 11.4801 10.8239C11.7983 10.2159 12.2528 9.73011 12.8438 9.36648C13.4347 8.99716 14.1506 8.8125 14.9915 8.8125C15.8608 8.8125 16.5909 8.99716 17.1818 9.36648C17.7784 9.73011 18.2301 10.2159 18.5369 10.8239C18.8438 11.4261 18.9972 12.0909 18.9972 12.8182V13.7386C18.9972 14.4659 18.8409 15.1307 18.5284 15.733C18.2216 16.3352 17.7699 16.8153 17.1733 17.1733C16.5767 17.5312 15.8494 17.7102 14.9915 17.7102C14.1335 17.7102 13.4063 17.5284 12.8097 17.1648C12.2188 16.8011 11.7699 16.3182 11.4631 15.7159C11.1619 15.1136 11.0114 14.4545 11.0114 13.7386ZM13.7557 12.8182V13.7386C13.7557 14.1193 13.8438 14.4744 14.0199 14.804C14.2017 15.1278 14.5256 15.2898 14.9915 15.2898C15.4915 15.2898 15.8239 15.1278 15.9886 14.804C16.1591 14.4744 16.2443 14.1193 16.2443 13.7386V12.8182C16.2443 12.4375 16.1648 12.0795 16.0057 11.7443C15.8466 11.4034 15.5085 11.233 14.9915 11.233C14.5142 11.233 14.1875 11.4062 14.0114 11.7528C13.8409 12.0994 13.7557 12.4545 13.7557 12.8182ZM12.2983 27L24.2983 9.54545H26.625L14.625 27H12.2983Z" fill="white"/>
</g>
<defs>
<clipPath id="clip0_174_2">
<rect width="40" height="40" fill="white"/>
</clipPath>
</defs>
</svg>
