<svg width="17" height="23" viewBox="0 0 17 23" fill="none" xmlns="http://www.w3.org/2000/svg">
<g id="Group 1">
<path id="Vector" d="M3.4 17.608C3.4 17.608 0 8.80398 0 4.40199C0 0 2.26667 0 2.26667 0H3.4C3.4 0 4.53333 0 4.53333 1.1005C4.53333 2.20099 4.53333 3.30149 2.26667 4.40199C2.26667 6.60298 6.8 8.80398 6.8 12.1055C7.36667 13.206 8.83833 14.1681 8.5 14.8567C9.63333 16.5075 9.63333 16.5075 7.93333 16.5075C8.5 16.5075 3.4 17.608 3.4 17.608ZM9.06667 16.5075C7.93333 16.5075 3.48645 17.5492 3.48645 17.5492C3.14645 17.7693 4.30667 19.809 4.53333 20.1391C4.53333 20.1391 5.66667 22.12 7.93333 22.12H14.7333C15.98 22.12 17 21.1296 17 19.919V18.8185C17 17.608 15.98 15.9572 14.7333 15.9572H13.6H12.4667L10.7667 16.6175L9.06667 16.5075Z" fill="#9C9C9C"/>
<line id="Line 2" y1="-0.5" x2="5.77254" y2="-0.5" transform="matrix(0.981659 -0.190644 0.201733 0.979441 3.40001 17.608)" stroke="#9C9C9C"/>
<line id="Line 3" y1="-0.5" x2="4.95129" y2="-0.5" transform="matrix(0.457793 0.889059 -0.899579 0.436758 6.8 12.1055)" stroke="white"/>
</g>
</svg>
