<svg width="15" height="23" viewBox="0 0 15 23" fill="none" xmlns="http://www.w3.org/2000/svg">
<g id="Group 3">
<path id="Vector" d="M6.93214 0.249069C7.08281 0.0895821 7.28705 0 7.5 0C7.71295 0 7.91719 0.0895821 8.06786 0.249069C8.49964 0.70669 10.2096 2.66436 11.8168 5.20228C13.4025 7.70387 15 10.9402 15 13.9096C15 16.7757 14.2007 18.9957 12.81 20.5025C11.4204 22.006 9.52393 22.71 7.5 22.71C5.47607 22.71 3.57964 22.0071 2.19 20.5025C0.799286 18.9957 0 16.7757 0 13.9096C0 10.9402 1.59857 7.70387 3.18321 5.20228C4.79036 2.66436 6.50036 0.705555 6.93214 0.249069Z" fill="#9C9C9C"/>
<path id="Line 1" d="M7.29331 20.9284V20.9284C7.83287 20.9284 8.36066 20.7641 8.81173 20.4557L9.27914 20.1361C9.54366 19.9553 9.78971 19.7467 10.0134 19.5136L10.5364 18.9689L11.0657 18.4176C11.2853 18.1889 11.4819 17.9372 11.6523 17.6668V17.6668C12.151 16.8755 12.411 15.9464 12.3983 15V15" stroke="white" stroke-width="1.3"/>
</g>
</svg>
