<svg width="360" height="62" viewBox="0 0 360 62" fill="none" xmlns="http://www.w3.org/2000/svg">
<path d="M370.674 22.2743C370.674 34.6144 370.617 46.8786 370.731 59.1807C370.731 61.1552 370.341 61.5443 368.391 61.5443C309.084 61.4747 249.777 61.4557 190.47 61.4874H-11.9442C-12.4667 60.6744 -12.6668 59.6964 -12.5054 58.7441C-12.5054 44.3631 -12.5815 29.9916 -12.5054 15.6201C-12.0298 13.4749 -10.2417 13.1996 -8.56765 12.9813C-4.5443 12.4402 -0.787262 13.1331 2.3325 15.9524C2.77681 16.4387 3.38153 16.7495 4.03631 16.8279C4.6911 16.9063 5.35231 16.7472 5.89931 16.3795C12.4622 12.9338 19.1203 12.5826 25.5595 16.5504C27.6901 17.8509 29.4687 18.1546 31.5327 16.8447C31.953 16.619 32.4254 16.5077 32.9024 16.5219C34.5214 16.4365 36.1438 16.4365 37.7628 16.5219C38.0377 16.5296 38.3114 16.5613 38.5807 16.6168C40.3258 17.2131 42.0157 17.9595 43.6313 18.8476C43.8665 18.9707 44.0867 19.1204 44.2876 19.2937C44.6446 19.5906 44.9844 19.9075 45.3054 20.2429C47.7498 22.6635 47.7498 22.6635 50.3369 20.2429C50.5578 20.0654 50.7933 19.9066 51.0408 19.7683C53.9608 18.0597 56.7477 16.2087 60.2859 15.829C63.1819 15.5066 66.1133 15.8642 68.8463 16.8731C69.1221 16.8731 69.3884 16.9776 69.6643 17.0155C71.3002 16.8447 71.0244 15.3449 71.3478 14.3671C73.9444 6.54541 81.4109 1.07779 89.2484 1.32459C92.2981 1.53165 95.2445 2.5118 97.8087 4.17231C98.8246 4.87933 99.8894 5.51374 100.995 6.07079C103.706 7.84586 105.047 10.5512 105.941 13.5603C106.493 15.4588 107.482 16.2656 109.498 15.5822C112.186 14.5964 115.088 14.3406 117.907 14.8409C120.726 15.3413 123.362 16.5798 125.544 18.4299C127.779 20.2239 129.672 20.6036 132.05 19.2747C136.425 18.3255 140.61 18.5153 144.662 20.765C145.861 21.439 146.565 21.0973 146.764 19.6069C147.134 16.8476 148.312 14.2587 150.15 12.1649C150.323 11.9375 150.514 11.7248 150.721 11.5289C152.058 10.5212 153.291 9.38279 154.402 8.13065C157.334 6.73156 160.646 6.33138 163.828 6.99155C165.278 7.38641 166.681 7.93703 168.013 8.63374C170.476 9.71588 172.017 11.396 171.618 14.3861C171.447 15.2363 171.507 16.1166 171.791 16.9359C172.076 17.7553 172.574 18.484 173.235 19.0469C174.186 23.4229 174.186 23.5843 178.942 23.7361C181.795 23.8311 184.506 24.4386 187.312 24.3531C187.683 24.3531 187.169 24.3531 187.502 24.1823C187.607 24.1253 187.502 23.8311 187.35 23.6697C185.305 22.2838 183.089 21.3156 184.496 17.8508C185.904 14.3861 185.524 14.2248 189.176 15.0031C189.657 15.1385 190.106 15.3699 190.495 15.6831C190.884 15.9964 191.205 16.385 191.44 16.8257C193.275 18.5438 193.732 20.8979 194.293 23.2046C198.497 24.2108 202.768 23.7456 207.01 23.8405C207.229 23.8405 207.961 24.0684 207.476 23.3564C207.286 23.141 207.065 22.9554 206.82 22.8059C205.869 21.9516 204.642 21.6383 203.614 20.9644C202.587 20.2904 202.235 19.5215 203.548 18.8286C204.252 18.4584 204.955 18.0787 205.155 17.3003C205.897 14.3387 207.79 14.538 209.997 15.4018C211.132 15.8728 212.325 16.1919 213.544 16.3511C215.047 16.8541 216.56 16.427 218.062 16.3511C220.307 15.5822 222.894 18.6957 224.587 16.408C225.919 14.6234 226.489 12.1269 227.802 10.162C228.142 9.61176 228.608 9.14983 229.162 8.8141C230.399 8.51984 231.255 7.58958 232.272 6.91562C233.29 6.24166 233.985 5.76704 234.907 5.29242C235.148 5.17077 235.399 5.07224 235.659 4.99815C236.61 4.79881 237.561 4.48557 238.512 4.30521C244.875 3.51734 250.078 5.5582 253.987 10.779C254.941 12.4379 255.759 14.1712 256.432 15.9619C256.964 17.5281 257.849 18.1166 259.437 17.4522C265.249 15.0411 270.166 16.7213 274.503 20.8979C275.597 21.9516 276.682 22.3123 278.07 21.5244C282.027 19.2652 286.098 19.4741 290.074 21.3441C292.242 22.3692 292.756 21.5434 293.251 19.531C294.487 14.4811 297.873 11.2347 302.591 9.56399C306.709 8.10217 313.053 10.8455 316.24 15.0791C316.972 16.0283 317.476 17.8034 319.236 16.3416C323.126 13.7976 327.007 14.4431 330.887 16.3416C331.172 16.4383 331.443 16.569 331.696 16.7308C333.085 18.1451 334.416 18.0502 336.233 17.1674C342.682 14.0254 348.959 14.4146 354.847 18.7621L355.532 19.2462C356.559 19.6354 357.339 18.9425 358.195 18.6197C361.885 17.1674 368.353 18.2685 370.674 22.2743Z" fill="white" stroke="white" stroke-miterlimit="10"/>
</svg>
