<svg width="37" height="31" viewBox="0 0 37 31" fill="none" xmlns="http://www.w3.org/2000/svg">
<g id="Vector" filter="url(#filter0_dd_49_163)">
<path d="M5.48176 8.74451L11.0293 9.94203C11.0955 9.95693 11.1562 9.9863 11.2057 10.0274C11.2553 10.0685 11.292 10.12 11.3125 10.1771L12.9718 14.9604C12.9976 15.0329 13.0497 15.0959 13.1203 15.1399C13.1909 15.1839 13.2761 15.2065 13.363 15.2042C13.4499 15.2019 13.5338 15.1749 13.602 15.1273C13.6702 15.0797 13.719 15.0141 13.7409 14.9403L15.1481 10.0769C15.1656 10.0188 15.1996 9.96544 15.2469 9.9218C15.2942 9.87816 15.3533 9.84566 15.4187 9.82733L20.8961 8.3417C20.9791 8.31863 21.0515 8.27256 21.1022 8.21048C21.153 8.14839 21.1794 8.07366 21.1774 7.99761C21.1754 7.92155 21.1452 7.8483 21.0912 7.78895C21.0373 7.7296 20.9626 7.68738 20.8785 7.66867L15.331 6.47115C15.2648 6.45626 15.204 6.42688 15.1545 6.38578C15.105 6.34467 15.0683 6.29317 15.0478 6.23609L13.3885 1.45278C13.3627 1.38027 13.3106 1.31725 13.24 1.27326C13.1694 1.22927 13.0842 1.20671 12.9973 1.20898C12.9103 1.21125 12.8264 1.23824 12.7582 1.28585C12.69 1.33347 12.6413 1.39912 12.6193 1.47288L11.1133 6.49138C11.0959 6.54945 11.1607 6.44774 11.1133 6.49138C11.066 6.53502 11.2851 6.41504 11.1133 6.49138L5.46418 8.07148C5.38114 8.09455 5.30877 8.14062 5.25801 8.2027C5.20725 8.26479 5.18087 8.33952 5.18286 8.41557C5.18485 8.49163 5.2151 8.56488 5.26903 8.62423C5.32296 8.68358 5.39764 8.7258 5.48176 8.74451Z" fill="white" shape-rendering="crispEdges"/>
<path d="M5.37323 9.23259L5.37323 9.23259L5.37626 9.23325L10.867 10.4185L12.4994 15.1243L12.4994 15.1243L12.5007 15.1279C12.5675 15.3158 12.6976 15.4657 12.8558 15.5643C13.0134 15.6625 13.1959 15.7087 13.3761 15.704C13.5562 15.6993 13.736 15.6436 13.8883 15.5373C14.0411 15.4305 14.1632 15.2741 14.2202 15.083L14.2212 15.0793L15.6056 10.2947L21.027 8.82427L21.027 8.82428L21.03 8.82345C21.2046 8.77491 21.3683 8.67501 21.4893 8.52695C21.6115 8.37754 21.6825 8.18727 21.6772 7.98455C21.6719 7.78182 21.5911 7.59552 21.4613 7.4527C21.3327 7.31116 21.164 7.21994 20.987 7.1806L20.987 7.18059L20.984 7.17993L15.4932 5.99466L13.8609 1.28891L13.8609 1.28891L13.8596 1.28524C13.7928 1.09739 13.6627 0.947529 13.5044 0.848915C13.3468 0.750705 13.1643 0.704442 12.9842 0.709149C12.8041 0.713857 12.6243 0.769588 12.472 0.875894C12.3193 0.982524 12.1973 1.13876 12.1403 1.32957C12.1402 1.32977 12.1402 1.32997 12.1401 1.33017L10.7136 6.08401L5.3303 7.58973C5.3302 7.58976 5.3301 7.58979 5.32999 7.58982C5.15546 7.63838 4.99189 7.73826 4.87092 7.88623C4.74876 8.03565 4.67773 8.22591 4.68303 8.42863C4.68833 8.63135 4.76919 8.81765 4.89899 8.96049C5.0276 9.10202 5.19629 9.19324 5.37323 9.23259Z" stroke="black" stroke-opacity="0.59" stroke-linecap="round" stroke-linejoin="round" shape-rendering="crispEdges"/>
</g>
<defs>
<filter id="filter0_dd_49_163" x="0.182755" y="0.208824" width="35.9948" height="29.9955" filterUnits="userSpaceOnUse" color-interpolation-filters="sRGB">
<feFlood flood-opacity="0" result="BackgroundImageFix"/>
<feColorMatrix in="SourceAlpha" type="matrix" values="0 0 0 0 0 0 0 0 0 0 0 0 0 0 0 0 0 0 127 0" result="hardAlpha"/>
<feOffset dx="7" dy="7"/>
<feGaussianBlur stdDeviation="3.5"/>
<feComposite in2="hardAlpha" operator="out"/>
<feColorMatrix type="matrix" values="0 0 0 0 1 0 0 0 0 1 0 0 0 0 1 0 0 0 0.25 0"/>
<feBlend mode="normal" in2="BackgroundImageFix" result="effect1_dropShadow_49_163"/>
<feColorMatrix in="SourceAlpha" type="matrix" values="0 0 0 0 0 0 0 0 0 0 0 0 0 0 0 0 0 0 127 0" result="hardAlpha"/>
<feOffset dy="4"/>
<feGaussianBlur stdDeviation="2"/>
<feComposite in2="hardAlpha" operator="out"/>
<feColorMatrix type="matrix" values="0 0 0 0 0 0 0 0 0 0 0 0 0 0 0 0 0 0 0.25 0"/>
<feBlend mode="normal" in2="effect1_dropShadow_49_163" result="effect2_dropShadow_49_163"/>
<feBlend mode="normal" in="SourceGraphic" in2="effect2_dropShadow_49_163" result="shape"/>
</filter>
</defs>
</svg>
